<?xml version="1.0" standalone="no"?><!DOCTYPE svg PUBLIC "-//W3C//DTD SVG 1.1//EN" "http://www.w3.org/Graphics/SVG/1.1/DTD/svg11.dtd"><svg t="1625380188098" class="icon" viewBox="0 0 1024 1024" version="1.1" xmlns="http://www.w3.org/2000/svg" p-id="3172" width="20" height="20" xmlns:xlink="http://www.w3.org/1999/xlink"><defs><style type="text/css"></style></defs><path d="M460.488932 531.450611L700.761 291.178543l21.147669-31.721504 63.626218-52.057814 40.882003 40.882004-52.057814 63.626217-31.721503 21.147669-240.266834 240.266834 26.172857 26.172858a29.611208 29.611208 0 0 1 0 41.876572l-9.778179 9.77818-5.046127-3.339657a11.104203 11.104203 0 0 0-15.389641 15.389641l3.339657 5.035658-229.630185 229.630184c-31.800022 31.800022-83.355317 31.805257-115.160574 0l-20.938286-20.938286c-31.794788-31.794788-31.800022-83.360552 0-115.160574L365.570446 532.13634l5.046127 3.350126a11.104203 11.104203 0 0 0 15.38964-15.38964l-3.339656-5.046127 9.772945-9.772945a29.611208 29.611208 0 0 1 41.876572 0l26.172858 26.172857z m-52.345716 94.222288a7.402802 7.402802 0 0 0-10.469143 0l-214.617433 214.617434a7.402802 7.402802 0 1 0 10.469143 10.469143l214.617433-214.617434a7.402802 7.402802 0 0 0 0-10.469143z m47.111144 36.642001a7.402802 7.402802 0 0 0-10.469143 0l-214.617433 214.617434a7.402802 7.402802 0 1 0 10.469143 10.469143l214.617433-214.617434a7.402802 7.402802 0 0 0 0-10.469143z m-83.753145-83.753145a7.402802 7.402802 0 0 0-10.469143 0l-214.617433 214.617434a7.402802 7.402802 0 1 0 10.469143 10.469143l214.617433-214.617434a7.402802 7.402802 0 0 0 0-10.469143z" fill="#414449" p-id="3173"></path><path d="M518.249855 379.610755l341.854164 341.854164a66.625219 66.625219 0 1 1-94.222288 94.222288L424.027567 473.833043c-75.650028 36.16042-167.045647 21.398928-227.515417-39.070842-59.674116-59.674116-74.980003-149.645931-40.222448-225.0447l4.444151-9.647316 119.531441 119.531442a59.222417 59.222417 0 1 0 83.753145-83.753145L244.492232 116.322275l9.647316-4.444151C329.533082 77.115334 419.504898 92.421221 479.184248 152.100572c60.469771 60.469771 75.231262 151.86539 39.070842 227.515417z" fill="#414449" p-id="3174"></path></svg>