<?xml version="1.0" standalone="no"?><!DOCTYPE svg PUBLIC "-//W3C//DTD SVG 1.1//EN" "http://www.w3.org/Graphics/SVG/1.1/DTD/svg11.dtd"><svg t="1624438309292" class="icon" viewBox="0 0 1024 1024" version="1.1" xmlns="http://www.w3.org/2000/svg" p-id="3375" width="20" height="20" xmlns:xlink="http://www.w3.org/1999/xlink"><defs><style type="text/css"></style></defs><path d="M231.083 509.497c-0.114 51.769-41.87 93.525-93.753 93.411-51.655-0.113-93.64-42.097-93.526-93.866 0-51.542 42.212-93.526 93.98-93.412 51.656 0.114 93.299 41.984 93.299 93.867z m656.497-93.753c51.77 0 93.867 41.87 93.867 93.525 0.114 51.655-41.87 93.753-93.639 93.753-51.883 0-93.753-41.642-93.753-93.525s41.643-93.753 93.525-93.753zM512.455 603.022c-51.655 0-93.98-42.439-93.753-93.753 0.342-51.769 42.212-93.525 93.98-93.525 51.656 0 93.867 42.212 93.64 93.753-0.114 51.655-42.098 93.525-93.867 93.525z" p-id="3376" fill="#ffffff"></path></svg>